<?xml version="1.0" encoding="utf-8" standalone="no"?>
<!DOCTYPE svg PUBLIC "-//W3C//DTD SVG 1.1//EN"
  "http://www.w3.org/Graphics/SVG/1.1/DTD/svg11.dtd">
<!-- Created with matplotlib (https://matplotlib.org/) -->
<svg height="345.6pt" version="1.1" viewBox="0 0 460.8 345.6" width="460.8pt" xmlns="http://www.w3.org/2000/svg" xmlns:xlink="http://www.w3.org/1999/xlink">
 <metadata>
  <rdf:RDF xmlns:cc="http://creativecommons.org/ns#" xmlns:dc="http://purl.org/dc/elements/1.1/" xmlns:rdf="http://www.w3.org/1999/02/22-rdf-syntax-ns#">
   <cc:Work>
    <dc:type rdf:resource="http://purl.org/dc/dcmitype/StillImage"/>
    <dc:date>2023-06-02T18:16:31.511945</dc:date>
    <dc:format>image/svg+xml</dc:format>
    <dc:creator>
     <cc:Agent>
      <dc:title>Matplotlib v3.3.2, https://matplotlib.org/</dc:title>
     </cc:Agent>
    </dc:creator>
   </cc:Work>
  </rdf:RDF>
 </metadata>
 <defs>
  <style type="text/css">*{stroke-linecap:butt;stroke-linejoin:round;}</style>
 </defs>
 <g id="figure_1">
  <g id="patch_1">
   <path d="M 0 345.6 
L 460.8 345.6 
L 460.8 0 
L 0 0 
z
" style="fill:#ffffff;"/>
  </g>
  <g id="axes_1">
   <g id="patch_2">
    <path d="M 57.6 307.584 
L 414.72 307.584 
L 414.72 41.472 
L 57.6 41.472 
z
" style="fill:#ffffff;"/>
   </g>
   <g id="matplotlib.axis_1">
    <g id="xtick_1">
     <g id="line2d_1">
      <path clip-path="url(#p1b11b50721)" d="M 73.832727 307.584 
L 73.832727 41.472 
" style="fill:none;stroke:#b0b0b0;stroke-linecap:square;stroke-width:0.8;"/>
     </g>
     <g id="line2d_2">
      <defs>
       <path d="M 0 0 
L 0 3.5 
" id="m9ba2b7d5e7" style="stroke:#000000;stroke-width:0.8;"/>
      </defs>
      <g>
       <use style="stroke:#000000;stroke-width:0.8;" x="73.832727" xlink:href="#m9ba2b7d5e7" y="307.584"/>
      </g>
     </g>
     <g id="text_1">
      <!-- 0 -->
      <g transform="translate(70.651477 322.182437)scale(0.1 -0.1)">
       <defs>
        <path d="M 31.78125 66.40625 
Q 24.171875 66.40625 20.328125 58.90625 
Q 16.5 51.421875 16.5 36.375 
Q 16.5 21.390625 20.328125 13.890625 
Q 24.171875 6.390625 31.78125 6.390625 
Q 39.453125 6.390625 43.28125 13.890625 
Q 47.125 21.390625 47.125 36.375 
Q 47.125 51.421875 43.28125 58.90625 
Q 39.453125 66.40625 31.78125 66.40625 
z
M 31.78125 74.21875 
Q 44.046875 74.21875 50.515625 64.515625 
Q 56.984375 54.828125 56.984375 36.375 
Q 56.984375 17.96875 50.515625 8.265625 
Q 44.046875 -1.421875 31.78125 -1.421875 
Q 19.53125 -1.421875 13.0625 8.265625 
Q 6.59375 17.96875 6.59375 36.375 
Q 6.59375 54.828125 13.0625 64.515625 
Q 19.53125 74.21875 31.78125 74.21875 
z
" id="DejaVuSans-48"/>
       </defs>
       <use xlink:href="#DejaVuSans-48"/>
      </g>
     </g>
    </g>
    <g id="xtick_2">
     <g id="line2d_3">
      <path clip-path="url(#p1b11b50721)" d="M 144.717999 307.584 
L 144.717999 41.472 
" style="fill:none;stroke:#b0b0b0;stroke-linecap:square;stroke-width:0.8;"/>
     </g>
     <g id="line2d_4">
      <g>
       <use style="stroke:#000000;stroke-width:0.8;" x="144.717999" xlink:href="#m9ba2b7d5e7" y="307.584"/>
      </g>
     </g>
     <g id="text_2">
      <!-- 100 -->
      <g transform="translate(135.174249 322.182437)scale(0.1 -0.1)">
       <defs>
        <path d="M 12.40625 8.296875 
L 28.515625 8.296875 
L 28.515625 63.921875 
L 10.984375 60.40625 
L 10.984375 69.390625 
L 28.421875 72.90625 
L 38.28125 72.90625 
L 38.28125 8.296875 
L 54.390625 8.296875 
L 54.390625 0 
L 12.40625 0 
z
" id="DejaVuSans-49"/>
       </defs>
       <use xlink:href="#DejaVuSans-49"/>
       <use x="63.623047" xlink:href="#DejaVuSans-48"/>
       <use x="127.246094" xlink:href="#DejaVuSans-48"/>
      </g>
     </g>
    </g>
    <g id="xtick_3">
     <g id="line2d_5">
      <path clip-path="url(#p1b11b50721)" d="M 215.603271 307.584 
L 215.603271 41.472 
" style="fill:none;stroke:#b0b0b0;stroke-linecap:square;stroke-width:0.8;"/>
     </g>
     <g id="line2d_6">
      <g>
       <use style="stroke:#000000;stroke-width:0.8;" x="215.603271" xlink:href="#m9ba2b7d5e7" y="307.584"/>
      </g>
     </g>
     <g id="text_3">
      <!-- 200 -->
      <g transform="translate(206.059521 322.182437)scale(0.1 -0.1)">
       <defs>
        <path d="M 19.1875 8.296875 
L 53.609375 8.296875 
L 53.609375 0 
L 7.328125 0 
L 7.328125 8.296875 
Q 12.9375 14.109375 22.625 23.890625 
Q 32.328125 33.6875 34.8125 36.53125 
Q 39.546875 41.84375 41.421875 45.53125 
Q 43.3125 49.21875 43.3125 52.78125 
Q 43.3125 58.59375 39.234375 62.25 
Q 35.15625 65.921875 28.609375 65.921875 
Q 23.96875 65.921875 18.8125 64.3125 
Q 13.671875 62.703125 7.8125 59.421875 
L 7.8125 69.390625 
Q 13.765625 71.78125 18.9375 73 
Q 24.125 74.21875 28.421875 74.21875 
Q 39.75 74.21875 46.484375 68.546875 
Q 53.21875 62.890625 53.21875 53.421875 
Q 53.21875 48.921875 51.53125 44.890625 
Q 49.859375 40.875 45.40625 35.40625 
Q 44.1875 33.984375 37.640625 27.21875 
Q 31.109375 20.453125 19.1875 8.296875 
z
" id="DejaVuSans-50"/>
       </defs>
       <use xlink:href="#DejaVuSans-50"/>
       <use x="63.623047" xlink:href="#DejaVuSans-48"/>
       <use x="127.246094" xlink:href="#DejaVuSans-48"/>
      </g>
     </g>
    </g>
    <g id="xtick_4">
     <g id="line2d_7">
      <path clip-path="url(#p1b11b50721)" d="M 286.488543 307.584 
L 286.488543 41.472 
" style="fill:none;stroke:#b0b0b0;stroke-linecap:square;stroke-width:0.8;"/>
     </g>
     <g id="line2d_8">
      <g>
       <use style="stroke:#000000;stroke-width:0.8;" x="286.488543" xlink:href="#m9ba2b7d5e7" y="307.584"/>
      </g>
     </g>
     <g id="text_4">
      <!-- 300 -->
      <g transform="translate(276.944793 322.182437)scale(0.1 -0.1)">
       <defs>
        <path d="M 40.578125 39.3125 
Q 47.65625 37.796875 51.625 33 
Q 55.609375 28.21875 55.609375 21.1875 
Q 55.609375 10.40625 48.1875 4.484375 
Q 40.765625 -1.421875 27.09375 -1.421875 
Q 22.515625 -1.421875 17.65625 -0.515625 
Q 12.796875 0.390625 7.625 2.203125 
L 7.625 11.71875 
Q 11.71875 9.328125 16.59375 8.109375 
Q 21.484375 6.890625 26.8125 6.890625 
Q 36.078125 6.890625 40.9375 10.546875 
Q 45.796875 14.203125 45.796875 21.1875 
Q 45.796875 27.640625 41.28125 31.265625 
Q 36.765625 34.90625 28.71875 34.90625 
L 20.21875 34.90625 
L 20.21875 43.015625 
L 29.109375 43.015625 
Q 36.375 43.015625 40.234375 45.921875 
Q 44.09375 48.828125 44.09375 54.296875 
Q 44.09375 59.90625 40.109375 62.90625 
Q 36.140625 65.921875 28.71875 65.921875 
Q 24.65625 65.921875 20.015625 65.03125 
Q 15.375 64.15625 9.8125 62.3125 
L 9.8125 71.09375 
Q 15.4375 72.65625 20.34375 73.4375 
Q 25.25 74.21875 29.59375 74.21875 
Q 40.828125 74.21875 47.359375 69.109375 
Q 53.90625 64.015625 53.90625 55.328125 
Q 53.90625 49.265625 50.4375 45.09375 
Q 46.96875 40.921875 40.578125 39.3125 
z
" id="DejaVuSans-51"/>
       </defs>
       <use xlink:href="#DejaVuSans-51"/>
       <use x="63.623047" xlink:href="#DejaVuSans-48"/>
       <use x="127.246094" xlink:href="#DejaVuSans-48"/>
      </g>
     </g>
    </g>
    <g id="xtick_5">
     <g id="line2d_9">
      <path clip-path="url(#p1b11b50721)" d="M 357.373815 307.584 
L 357.373815 41.472 
" style="fill:none;stroke:#b0b0b0;stroke-linecap:square;stroke-width:0.8;"/>
     </g>
     <g id="line2d_10">
      <g>
       <use style="stroke:#000000;stroke-width:0.8;" x="357.373815" xlink:href="#m9ba2b7d5e7" y="307.584"/>
      </g>
     </g>
     <g id="text_5">
      <!-- 400 -->
      <g transform="translate(347.830065 322.182437)scale(0.1 -0.1)">
       <defs>
        <path d="M 37.796875 64.3125 
L 12.890625 25.390625 
L 37.796875 25.390625 
z
M 35.203125 72.90625 
L 47.609375 72.90625 
L 47.609375 25.390625 
L 58.015625 25.390625 
L 58.015625 17.1875 
L 47.609375 17.1875 
L 47.609375 0 
L 37.796875 0 
L 37.796875 17.1875 
L 4.890625 17.1875 
L 4.890625 26.703125 
z
" id="DejaVuSans-52"/>
       </defs>
       <use xlink:href="#DejaVuSans-52"/>
       <use x="63.623047" xlink:href="#DejaVuSans-48"/>
       <use x="127.246094" xlink:href="#DejaVuSans-48"/>
      </g>
     </g>
    </g>
   </g>
   <g id="matplotlib.axis_2">
    <g id="ytick_1">
     <g id="line2d_11">
      <path clip-path="url(#p1b11b50721)" d="M 57.6 285.422822 
L 414.72 285.422822 
" style="fill:none;stroke:#b0b0b0;stroke-linecap:square;stroke-width:0.8;"/>
     </g>
     <g id="line2d_12">
      <defs>
       <path d="M 0 0 
L -3.5 0 
" id="m345a698073" style="stroke:#000000;stroke-width:0.8;"/>
      </defs>
      <g>
       <use style="stroke:#000000;stroke-width:0.8;" x="57.6" xlink:href="#m345a698073" y="285.422822"/>
      </g>
     </g>
     <g id="text_6">
      <!-- −2500 -->
      <g transform="translate(16.770313 289.222041)scale(0.1 -0.1)">
       <defs>
        <path d="M 10.59375 35.5 
L 73.1875 35.5 
L 73.1875 27.203125 
L 10.59375 27.203125 
z
" id="DejaVuSans-8722"/>
        <path d="M 10.796875 72.90625 
L 49.515625 72.90625 
L 49.515625 64.59375 
L 19.828125 64.59375 
L 19.828125 46.734375 
Q 21.96875 47.46875 24.109375 47.828125 
Q 26.265625 48.1875 28.421875 48.1875 
Q 40.625 48.1875 47.75 41.5 
Q 54.890625 34.8125 54.890625 23.390625 
Q 54.890625 11.625 47.5625 5.09375 
Q 40.234375 -1.421875 26.90625 -1.421875 
Q 22.3125 -1.421875 17.546875 -0.640625 
Q 12.796875 0.140625 7.71875 1.703125 
L 7.71875 11.625 
Q 12.109375 9.234375 16.796875 8.0625 
Q 21.484375 6.890625 26.703125 6.890625 
Q 35.15625 6.890625 40.078125 11.328125 
Q 45.015625 15.765625 45.015625 23.390625 
Q 45.015625 31 40.078125 35.4375 
Q 35.15625 39.890625 26.703125 39.890625 
Q 22.75 39.890625 18.8125 39.015625 
Q 14.890625 38.140625 10.796875 36.28125 
z
" id="DejaVuSans-53"/>
       </defs>
       <use xlink:href="#DejaVuSans-8722"/>
       <use x="83.789062" xlink:href="#DejaVuSans-50"/>
       <use x="147.412109" xlink:href="#DejaVuSans-53"/>
       <use x="211.035156" xlink:href="#DejaVuSans-48"/>
       <use x="274.658203" xlink:href="#DejaVuSans-48"/>
      </g>
     </g>
    </g>
    <g id="ytick_2">
     <g id="line2d_13">
      <path clip-path="url(#p1b11b50721)" d="M 57.6 246.844649 
L 414.72 246.844649 
" style="fill:none;stroke:#b0b0b0;stroke-linecap:square;stroke-width:0.8;"/>
     </g>
     <g id="line2d_14">
      <g>
       <use style="stroke:#000000;stroke-width:0.8;" x="57.6" xlink:href="#m345a698073" y="246.844649"/>
      </g>
     </g>
     <g id="text_7">
      <!-- −2000 -->
      <g transform="translate(16.770313 250.643867)scale(0.1 -0.1)">
       <use xlink:href="#DejaVuSans-8722"/>
       <use x="83.789062" xlink:href="#DejaVuSans-50"/>
       <use x="147.412109" xlink:href="#DejaVuSans-48"/>
       <use x="211.035156" xlink:href="#DejaVuSans-48"/>
       <use x="274.658203" xlink:href="#DejaVuSans-48"/>
      </g>
     </g>
    </g>
    <g id="ytick_3">
     <g id="line2d_15">
      <path clip-path="url(#p1b11b50721)" d="M 57.6 208.266475 
L 414.72 208.266475 
" style="fill:none;stroke:#b0b0b0;stroke-linecap:square;stroke-width:0.8;"/>
     </g>
     <g id="line2d_16">
      <g>
       <use style="stroke:#000000;stroke-width:0.8;" x="57.6" xlink:href="#m345a698073" y="208.266475"/>
      </g>
     </g>
     <g id="text_8">
      <!-- −1500 -->
      <g transform="translate(16.770313 212.065694)scale(0.1 -0.1)">
       <use xlink:href="#DejaVuSans-8722"/>
       <use x="83.789062" xlink:href="#DejaVuSans-49"/>
       <use x="147.412109" xlink:href="#DejaVuSans-53"/>
       <use x="211.035156" xlink:href="#DejaVuSans-48"/>
       <use x="274.658203" xlink:href="#DejaVuSans-48"/>
      </g>
     </g>
    </g>
    <g id="ytick_4">
     <g id="line2d_17">
      <path clip-path="url(#p1b11b50721)" d="M 57.6 169.688302 
L 414.72 169.688302 
" style="fill:none;stroke:#b0b0b0;stroke-linecap:square;stroke-width:0.8;"/>
     </g>
     <g id="line2d_18">
      <g>
       <use style="stroke:#000000;stroke-width:0.8;" x="57.6" xlink:href="#m345a698073" y="169.688302"/>
      </g>
     </g>
     <g id="text_9">
      <!-- −1000 -->
      <g transform="translate(16.770313 173.487521)scale(0.1 -0.1)">
       <use xlink:href="#DejaVuSans-8722"/>
       <use x="83.789062" xlink:href="#DejaVuSans-49"/>
       <use x="147.412109" xlink:href="#DejaVuSans-48"/>
       <use x="211.035156" xlink:href="#DejaVuSans-48"/>
       <use x="274.658203" xlink:href="#DejaVuSans-48"/>
      </g>
     </g>
    </g>
    <g id="ytick_5">
     <g id="line2d_19">
      <path clip-path="url(#p1b11b50721)" d="M 57.6 131.110129 
L 414.72 131.110129 
" style="fill:none;stroke:#b0b0b0;stroke-linecap:square;stroke-width:0.8;"/>
     </g>
     <g id="line2d_20">
      <g>
       <use style="stroke:#000000;stroke-width:0.8;" x="57.6" xlink:href="#m345a698073" y="131.110129"/>
      </g>
     </g>
     <g id="text_10">
      <!-- −500 -->
      <g transform="translate(23.132812 134.909347)scale(0.1 -0.1)">
       <use xlink:href="#DejaVuSans-8722"/>
       <use x="83.789062" xlink:href="#DejaVuSans-53"/>
       <use x="147.412109" xlink:href="#DejaVuSans-48"/>
       <use x="211.035156" xlink:href="#DejaVuSans-48"/>
      </g>
     </g>
    </g>
    <g id="ytick_6">
     <g id="line2d_21">
      <path clip-path="url(#p1b11b50721)" d="M 57.6 92.531955 
L 414.72 92.531955 
" style="fill:none;stroke:#b0b0b0;stroke-linecap:square;stroke-width:0.8;"/>
     </g>
     <g id="line2d_22">
      <g>
       <use style="stroke:#000000;stroke-width:0.8;" x="57.6" xlink:href="#m345a698073" y="92.531955"/>
      </g>
     </g>
     <g id="text_11">
      <!-- 0 -->
      <g transform="translate(44.2375 96.331174)scale(0.1 -0.1)">
       <use xlink:href="#DejaVuSans-48"/>
      </g>
     </g>
    </g>
    <g id="ytick_7">
     <g id="line2d_23">
      <path clip-path="url(#p1b11b50721)" d="M 57.6 53.953782 
L 414.72 53.953782 
" style="fill:none;stroke:#b0b0b0;stroke-linecap:square;stroke-width:0.8;"/>
     </g>
     <g id="line2d_24">
      <g>
       <use style="stroke:#000000;stroke-width:0.8;" x="57.6" xlink:href="#m345a698073" y="53.953782"/>
      </g>
     </g>
     <g id="text_12">
      <!-- 500 -->
      <g transform="translate(31.5125 57.753)scale(0.1 -0.1)">
       <use xlink:href="#DejaVuSans-53"/>
       <use x="63.623047" xlink:href="#DejaVuSans-48"/>
       <use x="127.246094" xlink:href="#DejaVuSans-48"/>
      </g>
     </g>
    </g>
   </g>
   <g id="line2d_25">
    <path clip-path="url(#p1b11b50721)" d="M 73.832727 109.499636 
L 74.54158 114.396867 
L 75.250433 102.713128 
L 75.959285 120.494691 
L 76.668138 104.154717 
L 77.376991 101.929191 
L 78.085844 128.63545 
L 78.794696 126.223723 
L 79.503549 99.926521 
L 80.212402 90.354496 
L 80.921254 134.684178 
L 81.630107 133.804057 
L 82.33896 92.854901 
L 83.047813 120.330394 
L 83.756665 101.489529 
L 84.465518 103.76351 
L 85.174371 122.833086 
L 85.883224 93.830903 
L 86.592076 141.249323 
L 87.300929 100.663244 
L 88.009782 130.089008 
L 88.718634 130.24598 
L 89.427487 111.612987 
L 90.13634 128.603816 
L 90.845193 107.111248 
L 91.554045 150.181997 
L 92.262898 141.293189 
L 92.971751 120.318534 
L 93.680603 130.119394 
L 94.389456 106.62658 
L 95.098309 123.921808 
L 95.807162 106.158199 
L 97.224867 135.730565 
L 97.93372 118.621019 
L 98.642572 122.648946 
L 99.351425 148.966295 
L 100.060278 123.69482 
L 100.769131 133.648409 
L 101.477983 123.699956 
L 102.186836 99.977033 
L 102.895689 135.166592 
L 103.604541 142.766742 
L 104.313394 146.818597 
L 105.022247 137.344639 
L 105.7311 143.873297 
L 107.148805 106.116064 
L 107.857658 208.542306 
L 108.566511 126.422192 
L 109.275363 110.119708 
L 109.984216 112.097972 
L 110.693069 130.613722 
L 111.401921 102.190738 
L 112.110774 102.510457 
L 112.819627 129.448795 
L 113.52848 111.358194 
L 114.237332 121.267324 
L 114.946185 137.598225 
L 115.655038 121.83309 
L 116.36389 155.555761 
L 117.072743 117.503657 
L 117.781596 100.412319 
L 118.490449 110.040527 
L 119.199301 130.893655 
L 119.908154 116.772898 
L 120.617007 128.89841 
L 121.325859 122.173817 
L 122.034712 129.971544 
L 122.743565 118.698162 
L 123.452418 124.405653 
L 124.16127 117.196771 
L 124.870123 115.628317 
L 125.578976 142.139736 
L 126.287829 138.478536 
L 126.996681 107.723392 
L 127.705534 156.507274 
L 128.414387 93.177877 
L 129.123239 99.360796 
L 129.832092 119.644799 
L 130.540945 116.505 
L 131.249798 143.000627 
L 131.95865 127.207645 
L 132.667503 115.021639 
L 133.376356 100.555441 
L 134.085208 102.410909 
L 134.794061 103.026044 
L 135.502914 125.845209 
L 136.211767 120.405806 
L 136.920619 141.925812 
L 138.338325 103.153639 
L 139.047177 131.389206 
L 139.75603 122.884839 
L 140.464883 124.982838 
L 141.173736 120.344921 
L 141.882588 188.871011 
L 142.591441 120.244093 
L 143.300294 100.738133 
L 144.009146 149.967321 
L 144.717999 107.507316 
L 145.426852 99.323186 
L 146.135705 128.844337 
L 146.844557 147.83073 
L 147.55341 145.105617 
L 148.262263 122.941717 
L 148.971116 122.075861 
L 149.679968 136.703131 
L 150.388821 114.062125 
L 151.097674 116.120071 
L 151.806526 120.615589 
L 152.515379 106.097185 
L 153.224232 112.132593 
L 154.641937 121.729163 
L 155.35079 123.118323 
L 156.059643 103.126029 
L 156.768495 106.403814 
L 157.477348 132.87682 
L 158.186201 98.967956 
L 158.895054 142.130229 
L 159.603906 113.009422 
L 160.312759 134.931449 
L 161.021612 102.678432 
L 161.730464 142.887341 
L 162.439317 151.426587 
L 163.14817 144.275644 
L 163.857023 116.794276 
L 164.565875 117.155452 
L 165.274728 100.509432 
L 165.983581 138.224707 
L 166.692434 125.026397 
L 167.401286 95.129635 
L 168.110139 108.711022 
L 168.818992 125.877062 
L 169.527844 165.894867 
L 170.236697 102.90334 
L 170.94555 151.148817 
L 171.654403 146.302314 
L 172.363255 117.566033 
L 173.072108 132.370138 
L 173.780961 103.744158 
L 174.489813 152.861614 
L 175.198666 104.751721 
L 176.616372 129.046399 
L 177.325224 135.334655 
L 178.034077 131.759787 
L 178.74293 110.687614 
L 179.451782 125.99004 
L 180.160635 111.394815 
L 180.869488 115.489279 
L 181.578341 146.661034 
L 182.287193 130.675433 
L 182.996046 136.61594 
L 183.704899 136.523791 
L 184.413751 134.594679 
L 185.122604 136.222234 
L 185.831457 133.453316 
L 186.54031 134.503448 
L 187.249162 135.217169 
L 187.958015 131.825714 
L 188.666868 118.484879 
L 189.375721 200.619843 
L 190.084573 104.641201 
L 190.793426 135.268129 
L 191.502279 115.348203 
L 192.211131 100.28563 
L 192.919984 106.353763 
L 193.628837 164.87051 
L 194.33769 135.967745 
L 195.755395 106.739757 
L 196.464248 102.020124 
L 197.1731 102.503064 
L 197.881953 99.89365 
L 198.590806 104.519626 
L 199.299659 104.300516 
L 200.008511 130.409354 
L 200.717364 125.531055 
L 201.426217 104.465227 
L 202.135069 123.515437 
L 202.843922 102.340995 
L 203.552775 196.591731 
L 204.261628 105.497273 
L 204.97048 101.407592 
L 205.679333 103.424548 
L 206.388186 107.089565 
L 207.097039 127.116277 
L 207.805891 99.550258 
L 208.514744 111.126016 
L 209.223597 141.02783 
L 209.932449 101.676192 
L 210.641302 100.659857 
L 211.350155 98.709594 
L 212.059008 160.004335 
L 212.76786 101.737072 
L 213.476713 146.25544 
L 214.185566 99.157694 
L 214.894418 155.342139 
L 215.603271 110.058955 
L 216.312124 104.25875 
L 217.020977 94.241269 
L 217.729829 124.480918 
L 218.438682 112.43145 
L 219.147535 139.21829 
L 219.856387 187.944073 
L 220.56524 138.004314 
L 221.274093 132.685402 
L 221.982946 138.956669 
L 222.691798 125.414951 
L 223.400651 124.749648 
L 224.109504 108.879976 
L 224.818356 129.903331 
L 225.527209 104.307484 
L 226.236062 136.880113 
L 226.944915 143.671363 
L 227.653767 111.177988 
L 228.36262 136.046851 
L 229.071473 110.906372 
L 229.780326 133.018138 
L 230.489178 100.726633 
L 231.198031 125.232324 
L 231.906884 134.944996 
L 232.615736 118.781181 
L 233.324589 91.412849 
L 234.033442 115.073147 
L 234.742295 124.238389 
L 235.451147 113.652254 
L 236.16 119.038948 
L 236.868853 113.423166 
L 237.577705 136.381115 
L 238.286558 131.940636 
L 238.995411 121.86205 
L 239.704264 101.29952 
L 240.413116 102.672354 
L 241.830822 137.00042 
L 242.539674 98.882323 
L 243.248527 112.72459 
L 243.95738 114.146628 
L 244.666233 130.642307 
L 245.375085 105.655943 
L 246.083938 93.404135 
L 246.792791 140.435995 
L 247.501644 118.514579 
L 248.210496 156.304666 
L 248.919349 133.852904 
L 249.628202 136.277668 
L 250.337054 116.253013 
L 251.045907 130.546156 
L 251.75476 126.435785 
L 252.463613 116.982072 
L 253.172465 113.445058 
L 253.881318 130.892951 
L 254.590171 125.605537 
L 255.299023 122.344236 
L 256.007876 144.503276 
L 256.716729 101.964597 
L 257.425582 119.230155 
L 258.134434 150.001033 
L 258.843287 103.714012 
L 259.55214 129.070149 
L 260.260992 141.588965 
L 260.969845 130.227022 
L 261.678698 107.519364 
L 262.387551 105.21246 
L 263.096403 115.450002 
L 263.805256 111.264687 
L 264.514109 101.706446 
L 265.222961 146.73046 
L 265.931814 153.818826 
L 266.640667 113.307267 
L 267.34952 103.34388 
L 268.058372 100.561983 
L 268.767225 103.693124 
L 269.476078 140.723852 
L 270.184931 132.889073 
L 270.893783 103.085814 
L 271.602636 123.429032 
L 272.311489 134.258573 
L 273.020341 92.048567 
L 273.729194 102.763061 
L 274.438047 122.886899 
L 275.1469 176.146803 
L 275.855752 104.345406 
L 276.564605 114.434662 
L 277.273458 119.158915 
L 277.98231 153.441253 
L 278.691163 136.986737 
L 279.400016 149.6282 
L 280.108869 134.012398 
L 280.817721 126.202731 
L 281.526574 147.534642 
L 282.235427 128.952152 
L 282.944279 129.485647 
L 283.653132 128.38635 
L 284.361985 137.27191 
L 285.070838 108.967639 
L 285.77969 98.69676 
L 286.488543 138.026434 
L 287.197396 126.715997 
L 287.906249 295.488 
L 288.615101 114.223379 
L 289.323954 135.509933 
L 290.032807 149.761341 
L 290.741659 128.135283 
L 291.450512 146.287774 
L 292.159365 123.736096 
L 292.868218 140.42982 
L 293.57707 146.637333 
L 294.285923 140.290439 
L 294.994776 98.145842 
L 295.703628 159.000344 
L 296.412481 122.182592 
L 297.121334 100.294416 
L 297.830187 120.72109 
L 298.539039 134.162712 
L 299.247892 135.85612 
L 299.956745 99.756078 
L 300.665597 134.936386 
L 301.37445 104.686036 
L 302.083303 96.331432 
L 302.792156 102.160236 
L 303.501008 126.745481 
L 304.209861 127.550058 
L 304.918714 94.696707 
L 305.627566 129.853154 
L 306.336419 124.857135 
L 307.045272 125.124273 
L 307.754125 102.594654 
L 308.462977 121.514551 
L 309.17183 130.389693 
L 309.880683 106.032913 
L 310.589536 109.714312 
L 311.298388 125.578281 
L 312.007241 117.317417 
L 312.716094 105.180828 
L 313.424946 125.112695 
L 314.133799 119.58781 
L 314.842652 129.694098 
L 315.551505 107.521263 
L 316.96921 131.184111 
L 317.678063 123.627052 
L 318.386915 113.56252 
L 319.095768 111.026913 
L 319.804621 128.289953 
L 320.513474 105.536101 
L 321.222326 116.137916 
L 321.931179 120.449431 
L 322.640032 134.720316 
L 323.348884 108.802239 
L 324.057737 143.604126 
L 324.76659 132.622365 
L 325.475443 166.063127 
L 326.184295 93.140376 
L 326.893148 120.3114 
L 327.602001 120.914086 
L 328.310854 104.084521 
L 329.019706 169.140003 
L 329.728559 99.652814 
L 330.437412 104.968305 
L 331.146264 114.800733 
L 331.855117 158.293626 
L 332.56397 136.09708 
L 333.272823 104.206358 
L 333.981675 101.067021 
L 334.690528 113.449161 
L 335.399381 144.296272 
L 336.817086 105.929899 
L 337.525939 136.436148 
L 338.234792 124.412198 
L 338.943644 117.452036 
L 339.652497 117.239186 
L 340.36135 96.920015 
L 341.070202 123.318228 
L 341.779055 100.338144 
L 342.487908 103.487811 
L 343.196761 100.160609 
L 343.905613 137.713303 
L 344.614466 104.334676 
L 345.323319 101.769146 
L 346.032171 102.393223 
L 346.741024 125.239535 
L 347.449877 129.485116 
L 348.15873 121.942374 
L 348.867582 144.638741 
L 349.576435 134.147193 
L 350.285288 115.953528 
L 350.994141 127.74223 
L 351.702993 137.593939 
L 352.411846 103.290231 
L 353.120699 136.906334 
L 353.829551 160.82936 
L 354.538404 115.23387 
L 355.247257 101.318375 
L 355.95611 123.590766 
L 356.664962 102.302569 
L 357.373815 128.422548 
L 358.082668 102.758304 
L 358.79152 145.396455 
L 359.500373 119.715999 
L 360.209226 145.180285 
L 360.918079 142.864069 
L 361.626931 101.449862 
L 362.335784 107.748765 
L 363.044637 133.742057 
L 363.753489 120.749613 
L 364.462342 128.701179 
L 365.171195 117.922366 
L 365.880048 163.740227 
L 366.5889 149.680237 
L 367.297753 109.450943 
L 368.006606 123.126035 
L 368.715459 122.840811 
L 369.424311 133.445204 
L 370.133164 106.4505 
L 370.842017 127.584828 
L 371.550869 196.207693 
L 372.259722 117.155819 
L 372.968575 121.865868 
L 373.677428 114.899012 
L 374.38628 102.896517 
L 375.095133 142.313856 
L 376.512838 104.067021 
L 377.221691 114.078932 
L 377.930544 133.45373 
L 378.639397 143.680385 
L 379.348249 91.946082 
L 380.057102 129.200292 
L 380.765955 100.628733 
L 381.474807 100.944047 
L 382.18366 103.158696 
L 382.892513 124.683909 
L 383.601366 127.689953 
L 384.310218 101.543186 
L 385.019071 128.89073 
L 385.727924 125.433075 
L 386.436776 150.906923 
L 387.145629 99.86762 
L 387.854482 119.352008 
L 388.563335 104.739569 
L 389.272187 109.382269 
L 389.98104 124.888889 
L 390.689893 115.41481 
L 391.398746 183.272666 
L 392.107598 129.960325 
L 392.816451 132.664844 
L 393.525304 133.12521 
L 394.234156 133.758524 
L 394.943009 103.000064 
L 395.651862 103.206894 
L 396.360715 132.096364 
L 397.069567 151.706247 
L 397.77842 137.066117 
L 398.487273 106.253723 
L 398.487273 106.253723 
" style="fill:none;stroke:#008000;stroke-linecap:square;stroke-width:1.5;"/>
   </g>
   <g id="line2d_26">
    <path clip-path="url(#p1b11b50721)" d="M 73.832727 85.973666 
L 74.54158 85.124946 
L 75.250433 86.205135 
L 75.959285 85.742197 
L 76.668138 88.519825 
L 77.376991 88.519825 
L 78.085844 88.056887 
L 78.794696 87.748262 
L 79.503549 87.979731 
L 80.212402 80.727034 
L 80.921254 84.662008 
L 81.630107 84.739164 
L 82.33896 88.056887 
L 83.047813 88.2112 
L 83.756665 86.899542 
L 84.465518 88.365512 
L 85.174371 85.587884 
L 85.883224 85.124946 
L 86.592076 86.590916 
L 87.300929 87.748262 
L 88.718634 85.896509 
L 89.427487 82.655943 
L 90.13634 83.504663 
L 90.845193 85.742197 
L 91.554045 82.964568 
L 92.262898 87.208167 
L 92.971751 85.896509 
L 93.680603 88.056887 
L 95.098309 87.748262 
L 95.807162 86.745229 
L 96.516014 85.973666 
L 97.224867 86.050822 
L 97.93372 87.748262 
L 98.642572 85.587884 
L 99.351425 81.267129 
L 100.060278 81.189972 
L 100.769131 87.593949 
L 101.477983 87.36248 
L 102.186836 87.748262 
L 102.895689 86.51376 
L 103.604541 86.822385 
L 104.313394 86.050822 
L 105.022247 84.662008 
L 105.7311 86.590916 
L 106.439952 87.825418 
L 107.148805 84.970633 
L 107.857658 75.32609 
L 108.566511 79.261063 
L 109.275363 87.593949 
L 109.984216 85.279259 
L 110.693069 86.205135 
L 111.401921 85.973666 
L 112.110774 87.131011 
L 112.819627 86.436604 
L 113.52848 87.748262 
L 114.237332 84.893477 
L 114.946185 87.208167 
L 115.655038 88.596981 
L 116.36389 81.421441 
L 117.072743 87.516793 
L 117.781596 87.131011 
L 118.490449 88.365512 
L 119.199301 87.671105 
L 119.908154 88.288356 
L 120.617007 85.124946 
L 121.325859 84.430539 
L 122.034712 84.970633 
L 122.743565 81.421441 
L 123.452418 87.593949 
L 124.16127 88.365512 
L 124.870123 85.433571 
L 125.578976 85.124946 
L 126.287829 86.205135 
L 126.996681 87.825418 
L 127.705534 83.504663 
L 128.414387 86.822385 
L 129.123239 87.902574 
L 129.832092 87.516793 
L 131.249798 82.887412 
L 131.95865 86.359447 
L 132.667503 88.751294 
L 133.376356 87.748262 
L 134.085208 87.053855 
L 134.794061 87.285324 
L 135.502914 88.134043 
L 136.211767 85.66504 
L 136.920619 84.276226 
L 137.629472 88.442669 
L 138.338325 84.893477 
L 139.047177 86.590916 
L 139.75603 86.976698 
L 140.464883 85.819353 
L 141.173736 88.442669 
L 141.882588 77.563624 
L 142.591441 88.2112 
L 143.300294 88.056887 
L 144.009146 83.967601 
L 144.717999 86.590916 
L 145.426852 88.365512 
L 146.844557 85.973666 
L 147.55341 85.510728 
L 148.262263 86.205135 
L 148.971116 87.748262 
L 149.679968 86.976698 
L 150.388821 88.134043 
L 151.097674 86.668073 
L 151.806526 87.748262 
L 152.515379 86.745229 
L 153.224232 86.205135 
L 153.933085 83.427506 
L 154.641937 88.519825 
L 155.35079 87.902574 
L 156.059643 85.66504 
L 156.768495 85.896509 
L 157.477348 74.47737 
L 158.186201 87.825418 
L 158.895054 87.593949 
L 159.603906 87.131011 
L 160.312759 84.662008 
L 161.021612 86.436604 
L 161.730464 85.66504 
L 162.439317 85.973666 
L 163.14817 83.504663 
L 163.857023 88.519825 
L 164.565875 84.044757 
L 165.274728 88.134043 
L 165.983581 85.819353 
L 166.692434 87.825418 
L 167.401286 84.584851 
L 168.110139 88.365512 
L 168.818992 88.056887 
L 169.527844 85.742197 
L 170.236697 86.668073 
L 170.94555 82.578786 
L 171.654403 86.745229 
L 172.363255 86.050822 
L 173.072108 85.896509 
L 173.780961 86.050822 
L 174.489813 82.193005 
L 175.198666 86.51376 
L 175.907519 87.902574 
L 176.616372 84.81632 
L 177.325224 84.893477 
L 178.034077 86.050822 
L 178.74293 87.979731 
L 179.451782 87.439636 
L 180.160635 85.819353 
L 180.869488 75.094621 
L 181.578341 86.127978 
L 182.287193 87.053855 
L 182.996046 82.964568 
L 183.704899 86.976698 
L 184.413751 86.590916 
L 185.122604 86.590916 
L 185.831457 87.671105 
L 186.54031 87.36248 
L 187.249162 87.593949 
L 187.958015 87.053855 
L 188.666868 88.365512 
L 189.375721 73.242868 
L 190.084573 87.748262 
L 190.793426 87.053855 
L 191.502279 83.504663 
L 192.211131 85.279259 
L 192.919984 86.51376 
L 193.628837 77.486468 
L 194.33769 86.205135 
L 195.046542 87.671105 
L 195.755395 87.208167 
L 196.464248 86.899542 
L 197.1731 87.671105 
L 197.881953 85.202102 
L 198.590806 85.742197 
L 199.299659 85.047789 
L 200.008511 84.662008 
L 201.426217 87.36248 
L 202.135069 86.205135 
L 202.843922 86.436604 
L 203.552775 81.035659 
L 204.261628 86.976698 
L 204.97048 86.590916 
L 205.679333 87.36248 
L 206.388186 84.970633 
L 207.097039 78.4895 
L 207.805891 88.674138 
L 208.514744 87.439636 
L 209.223597 81.575754 
L 210.641302 87.902574 
L 211.350155 88.288356 
L 212.059008 74.091588 
L 212.76786 86.899542 
L 213.476713 85.896509 
L 214.185566 88.365512 
L 214.894418 80.80419 
L 215.603271 82.887412 
L 216.312124 86.359447 
L 217.020977 88.2112 
L 217.729829 88.056887 
L 218.438682 84.893477 
L 219.147535 84.507695 
L 219.856387 72.548461 
L 220.56524 86.127978 
L 221.274093 86.668073 
L 221.982946 83.813288 
L 222.691798 83.967601 
L 223.400651 84.584851 
L 224.109504 87.593949 
L 225.527209 86.745229 
L 226.236062 84.584851 
L 226.944915 79.569689 
L 227.653767 87.439636 
L 228.36262 85.896509 
L 229.780326 85.356415 
L 230.489178 85.742197 
L 231.198031 87.825418 
L 231.906884 87.36248 
L 232.615736 88.056887 
L 233.324589 86.976698 
L 234.033442 87.979731 
L 234.742295 87.131011 
L 235.451147 86.668073 
L 236.16 88.288356 
L 236.868853 84.739164 
L 237.577705 85.356415 
L 238.286558 86.822385 
L 238.995411 83.890444 
L 239.704264 88.2112 
L 240.413116 88.519825 
L 241.121969 86.822385 
L 241.830822 86.745229 
L 242.539674 88.2112 
L 243.248527 84.430539 
L 243.95738 88.365512 
L 244.666233 86.899542 
L 245.375085 87.979731 
L 246.083938 87.902574 
L 246.792791 84.276226 
L 247.501644 88.056887 
L 248.210496 85.742197 
L 248.919349 85.66504 
L 249.628202 87.285324 
L 250.337054 85.66504 
L 251.045907 87.36248 
L 251.75476 87.825418 
L 252.463613 85.124946 
L 253.172465 86.976698 
L 253.881318 85.896509 
L 254.590171 86.205135 
L 255.299023 88.442669 
L 256.007876 86.745229 
L 256.716729 88.365512 
L 257.425582 83.658975 
L 258.134434 77.563624 
L 258.843287 86.205135 
L 259.55214 86.590916 
L 260.260992 82.270161 
L 260.969845 87.748262 
L 261.678698 87.902574 
L 262.387551 86.050822 
L 263.096403 85.356415 
L 263.805256 86.282291 
L 264.514109 87.979731 
L 265.222961 82.733099 
L 265.931814 86.050822 
L 266.640667 85.047789 
L 267.34952 85.973666 
L 268.058372 87.979731 
L 268.767225 85.356415 
L 269.476078 86.745229 
L 270.184931 82.578786 
L 270.893783 88.596981 
L 271.602636 85.896509 
L 273.020341 87.748262 
L 273.729194 87.36248 
L 274.438047 88.2112 
L 275.1469 69.230738 
L 275.855752 86.976698 
L 276.564605 87.439636 
L 277.273458 86.282291 
L 277.98231 85.896509 
L 278.691163 87.053855 
L 279.400016 81.344285 
L 280.108869 86.359447 
L 280.817721 88.056887 
L 281.526574 83.581819 
L 282.235427 87.439636 
L 282.944279 84.584851 
L 284.361985 84.430539 
L 285.070838 83.35035 
L 285.77969 88.365512 
L 286.488543 84.430539 
L 287.197396 85.742197 
L 287.906249 53.568 
L 288.615101 87.979731 
L 289.323954 85.819353 
L 290.032807 86.282291 
L 290.741659 86.359447 
L 291.450512 85.587884 
L 292.159365 86.282291 
L 292.868218 79.878314 
L 293.57707 77.717937 
L 294.285923 85.66504 
L 294.994776 88.134043 
L 295.703628 75.32609 
L 296.412481 87.593949 
L 297.121334 86.050822 
L 297.830187 87.053855 
L 298.539039 87.285324 
L 299.247892 83.273194 
L 299.956745 87.902574 
L 300.665597 87.053855 
L 301.37445 86.976698 
L 302.083303 83.967601 
L 303.501008 87.285324 
L 304.209861 86.590916 
L 304.918714 88.134043 
L 305.627566 84.353382 
L 306.336419 85.587884 
L 307.045272 87.053855 
L 307.754125 85.973666 
L 308.462977 86.668073 
L 309.17183 88.056887 
L 310.589536 88.2112 
L 311.298388 86.976698 
L 312.007241 86.359447 
L 312.716094 87.979731 
L 313.424946 85.973666 
L 314.133799 79.801158 
L 314.842652 85.433571 
L 315.551505 87.979731 
L 316.260357 87.208167 
L 316.96921 85.510728 
L 317.678063 85.66504 
L 318.386915 88.2112 
L 319.095768 85.202102 
L 319.804621 86.976698 
L 320.513474 86.51376 
L 321.222326 85.819353 
L 321.931179 86.590916 
L 322.640032 86.976698 
L 323.348884 85.819353 
L 324.057737 81.112816 
L 324.76659 86.050822 
L 325.475443 75.480402 
L 326.184295 85.124946 
L 326.893148 70.079458 
L 327.602001 86.436604 
L 328.310854 88.2112 
L 329.019706 80.264096 
L 329.728559 87.439636 
L 330.437412 87.439636 
L 331.146264 86.899542 
L 331.855117 80.572721 
L 332.56397 87.593949 
L 333.272823 87.516793 
L 333.981675 85.587884 
L 334.690528 86.205135 
L 335.399381 83.196037 
L 336.108233 87.131011 
L 336.817086 87.825418 
L 337.525939 86.668073 
L 338.943644 88.288356 
L 339.652497 87.902574 
L 340.36135 86.359447 
L 341.779055 86.590916 
L 342.487908 88.056887 
L 343.196761 88.442669 
L 343.905613 86.127978 
L 344.614466 88.056887 
L 345.323319 87.285324 
L 346.032171 88.365512 
L 346.741024 87.36248 
L 347.449877 87.902574 
L 348.15873 80.032627 
L 348.867582 83.813288 
L 349.576435 85.279259 
L 350.285288 88.056887 
L 350.994141 85.973666 
L 351.702993 87.285324 
L 352.411846 87.516793 
L 353.120699 84.507695 
L 353.829551 74.631683 
L 354.538404 88.365512 
L 355.247257 85.819353 
L 356.664962 87.053855 
L 357.373815 86.205135 
L 358.082668 87.36248 
L 358.79152 86.590916 
L 359.500373 87.285324 
L 360.209226 81.730067 
L 360.918079 86.205135 
L 361.626931 85.896509 
L 362.335784 86.745229 
L 363.044637 85.510728 
L 363.753489 88.365512 
L 364.462342 86.205135 
L 365.171195 88.442669 
L 365.880048 79.878314 
L 366.5889 86.282291 
L 367.297753 84.430539 
L 368.006606 88.288356 
L 368.715459 88.288356 
L 369.424311 85.510728 
L 370.133164 87.285324 
L 370.842017 87.902574 
L 371.550869 75.017464 
L 372.259722 78.798125 
L 372.968575 84.353382 
L 373.677428 83.35035 
L 374.38628 86.205135 
L 375.095133 82.270161 
L 375.803986 88.2112 
L 376.512838 85.819353 
L 377.221691 85.202102 
L 377.930544 86.51376 
L 378.639397 82.887412 
L 379.348249 87.285324 
L 380.057102 84.353382 
L 380.765955 88.365512 
L 381.474807 87.979731 
L 382.18366 88.288356 
L 383.601366 86.359447 
L 384.310218 85.047789 
L 385.019071 88.2112 
L 385.727924 86.668073 
L 386.436776 85.742197 
L 387.145629 88.442669 
L 387.854482 88.056887 
L 388.563335 88.519825 
L 389.272187 87.285324 
L 389.98104 88.288356 
L 391.398746 83.196037 
L 392.107598 87.671105 
L 392.816451 87.208167 
L 393.525304 86.51376 
L 394.234156 87.208167 
L 395.651862 85.819353 
L 396.360715 87.671105 
L 397.069567 79.183907 
L 397.77842 86.822385 
L 398.487273 87.131011 
L 398.487273 87.131011 
" style="fill:none;stroke:#0000ff;stroke-linecap:square;stroke-width:1.5;"/>
   </g>
   <g id="patch_3">
    <path d="M 57.6 307.584 
L 57.6 41.472 
" style="fill:none;stroke:#000000;stroke-linecap:square;stroke-linejoin:miter;stroke-width:0.8;"/>
   </g>
   <g id="patch_4">
    <path d="M 414.72 307.584 
L 414.72 41.472 
" style="fill:none;stroke:#000000;stroke-linecap:square;stroke-linejoin:miter;stroke-width:0.8;"/>
   </g>
   <g id="patch_5">
    <path d="M 57.6 307.584 
L 414.72 307.584 
" style="fill:none;stroke:#000000;stroke-linecap:square;stroke-linejoin:miter;stroke-width:0.8;"/>
   </g>
   <g id="patch_6">
    <path d="M 57.6 41.472 
L 414.72 41.472 
" style="fill:none;stroke:#000000;stroke-linecap:square;stroke-linejoin:miter;stroke-width:0.8;"/>
   </g>
   <g id="legend_1">
    <g id="patch_7">
     <path d="M 64.6 302.584 
L 128.475 302.584 
Q 130.475 302.584 130.475 300.584 
L 130.475 272.22775 
Q 130.475 270.22775 128.475 270.22775 
L 64.6 270.22775 
Q 62.6 270.22775 62.6 272.22775 
L 62.6 300.584 
Q 62.6 302.584 64.6 302.584 
z
" style="fill:#ffffff;opacity:0.8;stroke:#cccccc;stroke-linejoin:miter;"/>
    </g>
    <g id="line2d_27">
     <path d="M 66.6 278.326187 
L 86.6 278.326187 
" style="fill:none;stroke:#008000;stroke-linecap:square;stroke-width:1.5;"/>
    </g>
    <g id="line2d_28"/>
    <g id="text_13">
     <!-- score -->
     <g transform="translate(94.6 281.826187)scale(0.1 -0.1)">
      <defs>
       <path d="M 44.28125 53.078125 
L 44.28125 44.578125 
Q 40.484375 46.53125 36.375 47.5 
Q 32.28125 48.484375 27.875 48.484375 
Q 21.1875 48.484375 17.84375 46.4375 
Q 14.5 44.390625 14.5 40.28125 
Q 14.5 37.15625 16.890625 35.375 
Q 19.28125 33.59375 26.515625 31.984375 
L 29.59375 31.296875 
Q 39.15625 29.25 43.1875 25.515625 
Q 47.21875 21.78125 47.21875 15.09375 
Q 47.21875 7.46875 41.1875 3.015625 
Q 35.15625 -1.421875 24.609375 -1.421875 
Q 20.21875 -1.421875 15.453125 -0.5625 
Q 10.6875 0.296875 5.421875 2 
L 5.421875 11.28125 
Q 10.40625 8.6875 15.234375 7.390625 
Q 20.0625 6.109375 24.8125 6.109375 
Q 31.15625 6.109375 34.5625 8.28125 
Q 37.984375 10.453125 37.984375 14.40625 
Q 37.984375 18.0625 35.515625 20.015625 
Q 33.0625 21.96875 24.703125 23.78125 
L 21.578125 24.515625 
Q 13.234375 26.265625 9.515625 29.90625 
Q 5.8125 33.546875 5.8125 39.890625 
Q 5.8125 47.609375 11.28125 51.796875 
Q 16.75 56 26.8125 56 
Q 31.78125 56 36.171875 55.265625 
Q 40.578125 54.546875 44.28125 53.078125 
z
" id="DejaVuSans-115"/>
       <path d="M 48.78125 52.59375 
L 48.78125 44.1875 
Q 44.96875 46.296875 41.140625 47.34375 
Q 37.3125 48.390625 33.40625 48.390625 
Q 24.65625 48.390625 19.8125 42.84375 
Q 14.984375 37.3125 14.984375 27.296875 
Q 14.984375 17.28125 19.8125 11.734375 
Q 24.65625 6.203125 33.40625 6.203125 
Q 37.3125 6.203125 41.140625 7.25 
Q 44.96875 8.296875 48.78125 10.40625 
L 48.78125 2.09375 
Q 45.015625 0.34375 40.984375 -0.53125 
Q 36.96875 -1.421875 32.421875 -1.421875 
Q 20.0625 -1.421875 12.78125 6.34375 
Q 5.515625 14.109375 5.515625 27.296875 
Q 5.515625 40.671875 12.859375 48.328125 
Q 20.21875 56 33.015625 56 
Q 37.15625 56 41.109375 55.140625 
Q 45.0625 54.296875 48.78125 52.59375 
z
" id="DejaVuSans-99"/>
       <path d="M 30.609375 48.390625 
Q 23.390625 48.390625 19.1875 42.75 
Q 14.984375 37.109375 14.984375 27.296875 
Q 14.984375 17.484375 19.15625 11.84375 
Q 23.34375 6.203125 30.609375 6.203125 
Q 37.796875 6.203125 41.984375 11.859375 
Q 46.1875 17.53125 46.1875 27.296875 
Q 46.1875 37.015625 41.984375 42.703125 
Q 37.796875 48.390625 30.609375 48.390625 
z
M 30.609375 56 
Q 42.328125 56 49.015625 48.375 
Q 55.71875 40.765625 55.71875 27.296875 
Q 55.71875 13.875 49.015625 6.21875 
Q 42.328125 -1.421875 30.609375 -1.421875 
Q 18.84375 -1.421875 12.171875 6.21875 
Q 5.515625 13.875 5.515625 27.296875 
Q 5.515625 40.765625 12.171875 48.375 
Q 18.84375 56 30.609375 56 
z
" id="DejaVuSans-111"/>
       <path d="M 41.109375 46.296875 
Q 39.59375 47.171875 37.8125 47.578125 
Q 36.03125 48 33.890625 48 
Q 26.265625 48 22.1875 43.046875 
Q 18.109375 38.09375 18.109375 28.8125 
L 18.109375 0 
L 9.078125 0 
L 9.078125 54.6875 
L 18.109375 54.6875 
L 18.109375 46.1875 
Q 20.953125 51.171875 25.484375 53.578125 
Q 30.03125 56 36.53125 56 
Q 37.453125 56 38.578125 55.875 
Q 39.703125 55.765625 41.0625 55.515625 
z
" id="DejaVuSans-114"/>
       <path d="M 56.203125 29.59375 
L 56.203125 25.203125 
L 14.890625 25.203125 
Q 15.484375 15.921875 20.484375 11.0625 
Q 25.484375 6.203125 34.421875 6.203125 
Q 39.59375 6.203125 44.453125 7.46875 
Q 49.3125 8.734375 54.109375 11.28125 
L 54.109375 2.78125 
Q 49.265625 0.734375 44.1875 -0.34375 
Q 39.109375 -1.421875 33.890625 -1.421875 
Q 20.796875 -1.421875 13.15625 6.1875 
Q 5.515625 13.8125 5.515625 26.8125 
Q 5.515625 40.234375 12.765625 48.109375 
Q 20.015625 56 32.328125 56 
Q 43.359375 56 49.78125 48.890625 
Q 56.203125 41.796875 56.203125 29.59375 
z
M 47.21875 32.234375 
Q 47.125 39.59375 43.09375 43.984375 
Q 39.0625 48.390625 32.421875 48.390625 
Q 24.90625 48.390625 20.390625 44.140625 
Q 15.875 39.890625 15.1875 32.171875 
z
" id="DejaVuSans-101"/>
      </defs>
      <use xlink:href="#DejaVuSans-115"/>
      <use x="52.099609" xlink:href="#DejaVuSans-99"/>
      <use x="107.080078" xlink:href="#DejaVuSans-111"/>
      <use x="168.261719" xlink:href="#DejaVuSans-114"/>
      <use x="207.125" xlink:href="#DejaVuSans-101"/>
     </g>
    </g>
    <g id="line2d_29">
     <path d="M 66.6 293.004312 
L 86.6 293.004312 
" style="fill:none;stroke:#0000ff;stroke-linecap:square;stroke-width:1.5;"/>
    </g>
    <g id="line2d_30"/>
    <g id="text_14">
     <!-- length -->
     <g transform="translate(94.6 296.504312)scale(0.1 -0.1)">
      <defs>
       <path d="M 9.421875 75.984375 
L 18.40625 75.984375 
L 18.40625 0 
L 9.421875 0 
z
" id="DejaVuSans-108"/>
       <path d="M 54.890625 33.015625 
L 54.890625 0 
L 45.90625 0 
L 45.90625 32.71875 
Q 45.90625 40.484375 42.875 44.328125 
Q 39.84375 48.1875 33.796875 48.1875 
Q 26.515625 48.1875 22.3125 43.546875 
Q 18.109375 38.921875 18.109375 30.90625 
L 18.109375 0 
L 9.078125 0 
L 9.078125 54.6875 
L 18.109375 54.6875 
L 18.109375 46.1875 
Q 21.34375 51.125 25.703125 53.5625 
Q 30.078125 56 35.796875 56 
Q 45.21875 56 50.046875 50.171875 
Q 54.890625 44.34375 54.890625 33.015625 
z
" id="DejaVuSans-110"/>
       <path d="M 45.40625 27.984375 
Q 45.40625 37.75 41.375 43.109375 
Q 37.359375 48.484375 30.078125 48.484375 
Q 22.859375 48.484375 18.828125 43.109375 
Q 14.796875 37.75 14.796875 27.984375 
Q 14.796875 18.265625 18.828125 12.890625 
Q 22.859375 7.515625 30.078125 7.515625 
Q 37.359375 7.515625 41.375 12.890625 
Q 45.40625 18.265625 45.40625 27.984375 
z
M 54.390625 6.78125 
Q 54.390625 -7.171875 48.1875 -13.984375 
Q 42 -20.796875 29.203125 -20.796875 
Q 24.46875 -20.796875 20.265625 -20.09375 
Q 16.0625 -19.390625 12.109375 -17.921875 
L 12.109375 -9.1875 
Q 16.0625 -11.328125 19.921875 -12.34375 
Q 23.78125 -13.375 27.78125 -13.375 
Q 36.625 -13.375 41.015625 -8.765625 
Q 45.40625 -4.15625 45.40625 5.171875 
L 45.40625 9.625 
Q 42.625 4.78125 38.28125 2.390625 
Q 33.9375 0 27.875 0 
Q 17.828125 0 11.671875 7.65625 
Q 5.515625 15.328125 5.515625 27.984375 
Q 5.515625 40.671875 11.671875 48.328125 
Q 17.828125 56 27.875 56 
Q 33.9375 56 38.28125 53.609375 
Q 42.625 51.21875 45.40625 46.390625 
L 45.40625 54.6875 
L 54.390625 54.6875 
z
" id="DejaVuSans-103"/>
       <path d="M 18.3125 70.21875 
L 18.3125 54.6875 
L 36.8125 54.6875 
L 36.8125 47.703125 
L 18.3125 47.703125 
L 18.3125 18.015625 
Q 18.3125 11.328125 20.140625 9.421875 
Q 21.96875 7.515625 27.59375 7.515625 
L 36.8125 7.515625 
L 36.8125 0 
L 27.59375 0 
Q 17.1875 0 13.234375 3.875 
Q 9.28125 7.765625 9.28125 18.015625 
L 9.28125 47.703125 
L 2.6875 47.703125 
L 2.6875 54.6875 
L 9.28125 54.6875 
L 9.28125 70.21875 
z
" id="DejaVuSans-116"/>
       <path d="M 54.890625 33.015625 
L 54.890625 0 
L 45.90625 0 
L 45.90625 32.71875 
Q 45.90625 40.484375 42.875 44.328125 
Q 39.84375 48.1875 33.796875 48.1875 
Q 26.515625 48.1875 22.3125 43.546875 
Q 18.109375 38.921875 18.109375 30.90625 
L 18.109375 0 
L 9.078125 0 
L 9.078125 75.984375 
L 18.109375 75.984375 
L 18.109375 46.1875 
Q 21.34375 51.125 25.703125 53.5625 
Q 30.078125 56 35.796875 56 
Q 45.21875 56 50.046875 50.171875 
Q 54.890625 44.34375 54.890625 33.015625 
z
" id="DejaVuSans-104"/>
      </defs>
      <use xlink:href="#DejaVuSans-108"/>
      <use x="27.783203" xlink:href="#DejaVuSans-101"/>
      <use x="89.306641" xlink:href="#DejaVuSans-110"/>
      <use x="152.685547" xlink:href="#DejaVuSans-103"/>
      <use x="216.162109" xlink:href="#DejaVuSans-116"/>
      <use x="255.371094" xlink:href="#DejaVuSans-104"/>
     </g>
    </g>
   </g>
  </g>
 </g>
 <defs>
  <clipPath id="p1b11b50721">
   <rect height="266.112" width="357.12" x="57.6" y="41.472"/>
  </clipPath>
 </defs>
</svg>
